HIERARCHY
ROOT Hips
{
	OFFSET 272.094208 92.886261 -190.072601
	CHANNELS 6 Xposition Yposition Zposition Zrotation Yrotation Xrotation 
	JOINT LeftUpLeg
	{
		OFFSET 0.103458 1.857832 10.548514
		CHANNELS 3 Zrotation Yrotation Xrotation
		JOINT LeftLeg
		{
			OFFSET 43.500000 -0.000027 0.000013
			CHANNELS 3 Zrotation Yrotation Xrotation
			JOINT LeftFoot
			{
				OFFSET 42.372200 0.000008 -0.000018
				CHANNELS 3 Zrotation Yrotation Xrotation
				JOINT LeftToe
				{
					OFFSET 17.299995 -0.000003 0.000021
					CHANNELS 3 Zrotation Yrotation Xrotation
					End Site
					{
						OFFSET 0.000000 0.000000 0.000000
					}
				}
			}
		}
	}
	JOINT RightUpLeg
	{
		OFFSET 0.103456 1.857824 -10.548508
		CHANNELS 3 Zrotation Yrotation Xrotation
		JOINT RightLeg
		{
			OFFSET 43.500038 -0.000019 -0.000010
			CHANNELS 3 Zrotation Yrotation Xrotation
			JOINT RightFoot
			{
				OFFSET 42.372265 -0.000011 0.000021
				CHANNELS 3 Zrotation Yrotation Xrotation
				JOINT RightToe
				{
					OFFSET 17.300001 -0.000001 0.000008
					CHANNELS 3 Zrotation Yrotation Xrotation
					End Site
					{
						OFFSET 0.000000 0.000000 0.000000
					}
				}
			}
		}
	}
	JOINT Spine
	{
		OFFSET 6.901966 -2.603731 -0.000012
		CHANNELS 3 Zrotation Yrotation Xrotation
		JOINT Spine1
		{
			OFFSET 12.588102 -0.000004 0.000024
			CHANNELS 3 Zrotation Yrotation Xrotation
			JOINT Spine2
			{
				OFFSET 12.343197 0.000004 0.000001
				CHANNELS 3 Zrotation Yrotation Xrotation
				JOINT Neck
				{
					OFFSET 25.832897 -0.000006 0.000001
					CHANNELS 3 Zrotation Yrotation Xrotation
					JOINT Head
					{
						OFFSET 11.766610 0.000010 -0.000015
						CHANNELS 3 Zrotation Yrotation Xrotation
						End Site
						{
							OFFSET 0.000000 0.000000 0.000000
						}
					}
				}
				JOINT LeftShoulder
				{
					OFFSET 19.745909 -1.480370 6.000081
					CHANNELS 3 Zrotation Yrotation Xrotation
					JOINT LeftArm
					{
						OFFSET 11.284137 -0.000004 -0.000017
						CHANNELS 3 Zrotation Yrotation Xrotation
						JOINT LeftForeArm
						{
							OFFSET 33.000042 0.000009 0.000020
							CHANNELS 3 Zrotation Yrotation Xrotation
							JOINT LeftHand
							{
								OFFSET 25.200012 0.000019 0.000012
								CHANNELS 3 Zrotation Yrotation Xrotation
								End Site
								{
									OFFSET 0.000000 0.000000 0.000000
								}
							}
						}
					}
				}
				JOINT RightShoulder
				{
					OFFSET 19.746096 -1.480375 -6.000086
					CHANNELS 3 Zrotation Yrotation Xrotation
					JOINT RightArm
					{
						OFFSET 11.284146 -0.000018 -0.000021
						CHANNELS 3 Zrotation Yrotation Xrotation
						JOINT RightForeArm
						{
							OFFSET 33.000084 0.000018 0.000009
							CHANNELS 3 Zrotation Yrotation Xrotation
							JOINT RightHand
							{
								OFFSET 25.199770 0.000139 0.000425
								CHANNELS 3 Zrotation Yrotation Xrotation
								End Site
								{
									OFFSET 0.000000 0.000000 0.000000
								}
							}
						}
					}
				}
			}
		}
	}
}
MOTION
Frames: 14
Frame Time: 0.033333
-234.348801 77.097809 465.087189 83.354119 -12.057172 -135.363039 154.424334 12.932206 163.196278 -65.764818 -1.585052 -6.003504 103.676295 4.106420 2.936227 21.454551 0.003097 0.000002 169.146343 8.995297 -168.864584 -99.115252 -3.993104 -0.078186 71.646198 2.691755 7.194129 21.454558 -0.003109 -0.000014 10.786782 -3.460387 4.748283 11.288446 -7.367494 9.153393 10.971959 -7.312179 9.197397 16.375619 -21.381342 -7.632241 -13.566660 9.358307 -11.741496 -163.047967 -66.496809 -18.911993 47.233169 49.770909 41.090302 -95.013928 -2.078723 2.673338 2.168807 -22.919139 19.875833 -162.893796 82.855345 18.865123 -15.461381 -33.414129 31.761059 -103.414904 -0.141915 -2.937102 -11.457487 12.008885 -24.290099 
-231.428894 76.885010 466.507904 82.696440 -13.000617 -128.415029 156.056791 12.836815 167.040568 -66.725593 -1.317255 -3.445955 103.473794 2.405225 2.258585 21.454553 0.003094 -0.000001 165.068979 9.306603 -176.802903 -109.434903 -4.419921 -2.396718 71.542092 3.975375 5.825093 21.454558 -0.003108 -0.000017 11.263907 -3.657805 4.493762 12.250271 -7.770821 8.592523 11.932932 -7.718863 8.639072 18.368477 -20.990326 -8.663385 -12.967801 10.735821 -12.843644 -163.526982 -64.665219 -18.432976 46.866969 54.681958 36.412203 -96.741816 -2.081682 2.750403 -0.685429 -21.048287 25.873219 -166.302798 83.031618 15.417528 -18.914764 -35.037484 45.388287 -107.466019 -1.160969 -3.045292 -12.627198 11.832927 -24.348096 
-228.068100 77.374687 468.179688 81.848336 -12.811169 -120.754999 157.341672 11.272907 171.359379 -66.110521 -1.510302 -0.028503 102.307095 0.175024 2.096108 21.454551 0.003094 -0.000001 160.542203 9.261510 177.533391 -116.689602 -4.612868 -4.294003 72.919086 3.652069 0.852370 21.454567 -0.003117 -0.000015 11.632754 -3.720156 4.114340 13.013752 -7.879431 7.800219 12.695642 -7.832192 7.847519 19.465126 -20.385072 -9.488805 -12.707329 13.963352 -14.533246 -164.641969 -65.778895 -17.262933 45.854984 58.772125 34.738762 -99.224549 -1.797257 2.840867 -4.660113 -20.919415 29.563306 -169.499983 83.099278 12.185820 -23.359906 -37.327257 56.987820 -112.650214 -2.096226 -3.205833 -13.571192 12.372592 -24.312231 
-224.171005 78.570053 469.983185 81.318716 -11.058701 -111.897951 157.592504 8.677399 175.740972 -63.833958 -0.763212 4.055270 99.911994 -2.548241 1.787430 21.454555 0.003091 0.000001 156.116268 9.083896 175.089960 -119.959705 -4.678171 -5.222150 73.223658 4.138520 0.306226 21.454550 -0.003102 -0.000018 11.730847 -3.466829 3.528027 13.262567 -7.315195 6.646992 12.944014 -7.274876 6.690996 20.713862 -19.291403 -10.833903 -12.714762 16.223868 -16.481192 -168.552007 -66.792994 -13.201050 40.497523 59.621500 30.374169 -101.911798 -1.559242 2.943353 -9.914718 -19.680580 38.442798 -173.912831 82.994421 7.724755 -26.171019 -39.075215 62.918658 -117.010402 -2.974230 -3.330276 -13.920275 12.191061 -24.848148 
-219.861099 80.712570 471.579315 81.366596 -9.703088 -103.037959 159.009235 6.310509 -177.264856 -58.215936 -1.496631 7.132235 95.781860 -4.737209 0.386257 21.454551 0.003086 0.000001 153.876854 9.114105 174.980690 -118.731501 -4.601099 -5.247954 73.939345 4.744101 2.185496 21.454562 -0.003107 -0.000019 11.973068 -3.137466 3.002873 13.793359 -6.610549 5.618032 13.474654 -6.576425 5.657848 21.146115 -16.981968 -11.730687 -12.534165 18.295917 -18.030200 -173.183954 -69.380809 -8.415042 31.411384 59.721740 25.197777 -103.758701 -1.746588 3.037895 -14.652414 -17.643207 47.769605 -171.890713 82.708004 9.767706 -28.552757 -40.900863 62.672832 -119.268299 -2.833704 -3.433615 -14.580688 9.791460 -29.257822 
-215.045303 83.355370 473.133087 81.540048 -8.192812 -95.218984 160.968229 3.875391 -169.799609 -49.378402 -2.128592 8.910742 90.547060 -6.442509 -2.384632 21.454550 0.003101 0.000002 152.014070 7.630008 175.781926 -114.193298 -4.384157 -4.855219 74.046853 4.641970 2.843068 21.454557 -0.003098 -0.000024 12.063022 -2.916036 2.559533 14.005604 -6.120483 4.752694 13.686753 -6.091578 4.789601 21.818478 -14.718680 -12.344842 -12.157959 20.544509 -19.281639 -176.910041 -72.320112 -4.604003 20.137109 58.880028 19.483917 -104.628997 -2.090658 3.100176 -17.876087 -15.691972 54.215822 -179.884807 81.485229 1.663201 -27.919966 -41.530385 55.934854 -118.043304 -2.764422 -3.387732 -13.809336 7.339931 -32.989329 
-209.825607 86.245064 474.461700 83.167675 -6.129340 -87.808967 162.805741 -0.441409 -162.937878 -37.957707 -2.240001 10.183120 83.757401 -8.193737 -5.116703 21.454555 0.003086 0.000000 150.722071 4.249896 177.623523 -106.364200 -3.913030 -4.204319 73.927693 4.733329 4.727814 21.454555 -0.003109 -0.000017 11.882052 -2.393732 2.277709 13.670380 -5.039870 4.259859 13.351938 -5.013954 4.290216 22.528315 -12.559518 -12.998629 -11.173244 22.904940 -20.470944 175.889064 -74.499407 2.741926 8.828634 56.768496 13.665898 -104.517201 -2.211422 3.103695 -18.338872 -14.448688 53.339877 -177.341409 80.558933 4.227988 -28.297175 -42.153435 45.673086 -112.652912 -1.767216 -3.228658 -11.396766 4.025641 -36.861281 
-204.585098 88.534233 475.528687 84.925001 -4.088270 -80.503055 164.196559 -4.642398 -159.797535 -26.579376 -0.575325 8.600008 77.262608 -7.182332 -3.951227 21.454551 0.003082 -0.000001 150.040050 1.081498 178.763768 -96.895447 -3.210901 -3.653782 74.269428 4.851895 6.610840 21.454565 -0.003115 -0.000015 11.482490 -1.868185 1.861739 12.899378 -3.932393 3.505111 12.581125 -3.911024 3.528796 22.893196 -10.458877 -13.578129 -9.576058 24.209576 -21.117885 167.000010 -76.715906 11.754019 -0.618367 55.338855 9.299609 -104.116603 -2.258428 3.089366 -18.949769 -15.528176 49.755616 -175.026616 79.719277 6.568900 -29.046151 -42.252995 34.395108 -104.680196 0.051372 -3.006657 -5.507099 1.020635 -40.829221 
-199.774994 89.760452 476.179504 85.405362 -2.195263 -72.483026 163.263829 -4.454794 -161.849870 -25.056930 1.973047 -4.438731 78.367514 3.039775 -0.151650 21.454551 0.003089 0.000002 149.880988 -0.108391 178.994929 -87.201332 -2.724290 -4.539000 74.558174 5.135573 5.643342 21.454557 -0.003112 -0.000014 11.003607 -1.643139 1.038502 11.971384 -3.384928 1.901966 11.652882 -3.373252 1.922397 22.759843 -8.067114 -13.676769 -9.154196 25.221020 -21.492356 153.144999 -77.305707 25.822044 -6.420587 53.512316 5.829723 -104.820693 -2.117635 3.110482 -19.433497 -15.634223 48.742754 -176.608980 78.788377 4.950424 -29.872778 -42.000684 23.429203 -94.913449 2.528676 -2.743485 -1.553770 -1.060146 -44.563559 
-195.653000 89.742943 476.501099 84.860073 -1.710966 -64.614013 160.994607 -3.662594 -171.212270 -34.728814 4.146635 -15.354950 77.759648 9.544313 -4.340337 21.454551 0.003098 -0.000001 151.680388 -0.613495 177.250266 -77.504171 -1.898934 -6.439343 73.821880 6.102708 4.358449 21.454560 -0.003112 -0.000014 10.823841 -1.568444 0.151685 11.637207 -3.144175 0.144730 11.318593 -3.143113 0.163743 21.580770 -6.127216 -14.325272 -7.461601 25.348845 -21.857982 140.046977 -77.290298 39.105971 -13.491323 53.028288 0.521343 -106.482704 -2.128457 3.184006 -21.260371 -15.117816 50.151822 179.069405 77.594548 0.532024 -29.876883 -41.148717 9.487986 -85.762717 8.470247 -2.750821 -0.135453 -3.448490 -49.738080 
-191.570801 88.211304 476.566589 84.716578 -2.184024 -56.343013 157.793271 -3.633998 -176.464986 -51.359437 6.259381 -16.681584 77.871656 10.351290 -4.586186 21.454551 0.003092 -0.000002 154.338547 -2.585292 175.720167 -67.816060 -1.669987 -7.492418 70.812615 6.102609 1.782706 21.454560 -0.003109 -0.000015 10.754902 -1.284028 -0.506323 11.512245 -2.511259 -1.138260 11.193872 -2.517944 -1.123067 19.826871 -4.116329 -15.224560 -4.688571 26.104297 -22.315128 135.185071 -76.613310 44.077045 -24.901145 51.607106 -7.921063 -106.876601 -2.063441 3.196656 -23.835808 -14.350815 52.600192 179.483383 77.013607 0.943492 -29.404241 -41.923681 -2.523329 -77.013415 13.307809 -2.706377 -1.555629 -2.170055 -50.208526 
-187.688004 85.642616 476.339996 83.862558 -3.466718 -47.704958 156.472558 -3.615801 -175.561953 -68.659691 5.428199 -13.477794 77.704248 8.631431 -2.501680 21.454550 0.003091 -0.000000 157.590933 -4.892602 174.840712 -63.817565 -0.798334 -7.509708 74.753381 3.650962 -5.604984 21.454563 -0.003107 -0.000019 10.807635 -1.033148 -0.954816 11.621412 -1.965101 -2.008925 11.303327 -1.977060 -1.997003 19.515848 -0.574794 -16.543924 -4.208563 24.579508 -23.191836 126.735963 -76.360429 52.633089 -37.825110 50.992389 -18.039346 -107.552687 -2.134149 3.231037 -24.848098 -13.670729 55.235890 -177.868098 75.614688 3.625706 -26.476846 -44.028683 -11.346377 -70.635965 15.189291 -2.566751 -1.121572 -0.340874 -46.932788 
-184.034195 82.742393 476.008606 82.182298 -4.883210 -38.911991 157.880806 -4.032397 -174.277468 -83.458963 3.231411 -10.100519 75.786386 6.023002 -3.440681 21.454550 0.003091 0.000003 160.539813 -6.016492 178.223418 -63.764904 1.099865 -3.220610 88.471447 0.411134 -10.012897 21.454557 -0.003108 -0.000019 10.995374 -0.724076 -1.360039 11.994581 -1.303150 -2.787983 11.676793 -1.319817 -2.780062 19.909378 0.399176 -17.410352 -4.374590 25.637327 -24.397308 124.130041 -75.414885 55.340911 -50.420716 49.607022 -28.338146 -109.158205 -2.244781 3.308400 -25.233181 -12.966181 57.647732 -176.117466 74.160049 5.399305 -21.989336 -46.765796 -18.110168 -65.586427 16.711615 -2.465670 -0.112023 0.694433 -42.155934 
-180.173904 80.117477 475.663208 81.068997 -6.921021 -30.901002 160.869028 -5.293895 -175.425363 -94.791865 3.526734 -8.412807 69.635486 4.146432 -5.028455 21.454560 0.003094 -0.000001 161.251190 -8.243098 -172.894668 -63.993552 -1.104631 0.617323 97.437785 -1.258887 -9.688716 21.454558 -0.003108 -0.000018 11.318808 -0.084228 -1.626673 12.624625 0.009680 -3.252714 12.307096 -0.009821 -3.252705 20.456695 0.615263 -17.783688 -5.675582 25.131773 -25.017943 126.189944 -75.314905 53.271002 -62.714073 48.277693 -39.027527 -110.685995 -2.141978 3.367042 -25.858932 -11.837187 61.024182 -176.100910 72.550638 5.398407 -17.515515 -49.372098 -22.063977 -60.725177 17.610938 -2.336839 0.785766 2.367877 -37.807518 
